:FULLY-SPECIFIED
:DEGREES
832
root 8.06738 16.3771 -2.30163 2839.09 -86.6932 -2825.19
lowerback 0.758376 -1.08429 -0.494053
upperback 2.48673 -1.46918 0.149948
thorax 2.13933 -0.755115 0.413252
lowerneck -19.5769 3.36112 -2.64104
upperneck 35.4731 4.66808 0.987144
head 15.7352 1.39989 1.67134
rclavicle -2.68359e-015 2.38542e-014
rhumerus -37.4866 -26.3995 -68.2347
rradius 15.0991
rwrist 44.2451
rhand -18.2754 -13.2064
rfingers 7.12502
rthumb 8.00454 -43.0348
lclavicle -2.68359e-015 2.38542e-014
lhumerus -20.8264 -12.8257 79.9284
lradius 59.2305
lwrist 14.3724
lhand -31.3612 0.219587
lfingers 7.12502
lthumb -4.63192 30.1489
rfemur -45.8144 1.43563 16.1963
rtibia 28.638
rfoot 2.11546 -2.13084
rtoes -8.24917
lfemur -0.718492 -0.679099 -22.9708
ltibia 26.1953
lfoot -8.80409 -1.90161
ltoes -22.421
833
root 8.04529 16.3489 -2.32561 2836 -87.2051 -2822.31
lowerback 1.07292 -0.948034 0.0315291
upperback 2.53939 -1.2931 0.194927
thorax 2.00409 -0.658477 0.172614
lowerneck -19.5415 3.50154 -2.64331
upperneck 35.3128 4.96145 0.795122
head 15.6489 1.50246 1.64062
rclavicle -3.97569e-015 -7.95139e-015
rhumerus -37.4519 -26.6325 -68.1339
rradius 14.8818
rwrist 44.9666
rhand -18.0624 -13.1654
rfingers 7.12502
rthumb 8.21011 -42.9859
lclavicle -3.97569e-015 -7.95139e-015
lhumerus -21.1715 -12.0679 79.9667
lradius 59.3104
lwrist 13.6699
lhand -31.3104 0.194832
lfingers 7.12502
lthumb -4.58284 30.1253
rfemur -46.2207 1.74851 16.7917
rtibia 31.2951
rfoot 1.81298 -2.71779
rtoes -13.1837
lfemur -1.39518 -0.0141108 -22.3795
ltibia 29.1056
lfoot -7.11456 -2.25295
ltoes -23.1341
834
root 8.02141 16.3202 -2.3518 2827.37 -87.4554 -2813.88
lowerback 1.28944 -0.808781 0.177061
upperback 2.63612 -1.10975 0.158353
thorax 1.97791 -0.565023 0.0575194
lowerneck -19.5398 3.61597 -2.63911
upperneck 35.1711 5.19149 0.661338
head 15.58 1.58757 1.62326
rclavicle -6.26172e-015 9.54166e-015
rhumerus -37.2512 -26.6989 -68.2402
rradius 14.7253
rwrist 45.4254
rhand -17.882 -13.225
rfingers 7.12502
rthumb 8.38424 -43.0386
lclavicle -6.26172e-015 9.54166e-015
lhumerus -21.5253 -11.3495 80.037
lradius 59.2504
lwrist 13.1712
lhand -31.3007 0.0613638
lfingers 7.12502
lthumb -4.57345 29.992
rfemur -46.506 1.82021 17.1781
rtibia 33.7878
rfoot 1.0339 -2.38066
rtoes -12.2553
lfemur -2.21283 0.900121 -22.0518
ltibia 32.1431
lfoot -4.68787 -2.62267
ltoes -22.408
835
root 7.9998 16.2862 -2.37341 2819.8 -87.3669 -2806.66
lowerback 1.56266 -0.72279 0.250303
upperback 2.81359 -0.996916 -0.0132987
thorax 2.00279 -0.507311 -0.156454
lowerneck -19.5843 3.68667 -2.59304
upperneck 35.0453 5.30111 0.637459
head 15.5293 1.64404 1.62486
rclavicle 6.95746e-015 -2.78299e-015
rhumerus -37.0147 -26.8516 -68.4919
rradius 14.6915
rwrist 45.8081
rhand -17.5668 -13.0375
rfingers 7.12502
rthumb 8.68837 -42.8387
lclavicle 6.95746e-015 -2.78299e-015
lhumerus -21.8553 -10.8269 80.095
lradius 59.1089
lwrist 12.9647
lhand -31.4572 0.0959422
lfingers 7.12502
lthumb -4.72458 30.0233
rfemur -46.4501 1.55527 17.4399
rtibia 35.9257
rfoot 0.425708 -1.30835
rtoes -10.4786
lfemur -3.09283 1.81739 -21.883
ltibia 35.3125
lfoot -1.6764 -2.56833
ltoes -22.1591
836
root 7.9759 16.2623 -2.39878 2815.57 -87.3604 -2802.91
lowerback 1.90128 -0.663309 0.330922
upperback 2.99965 -0.921154 -0.10149
thorax 2.00191 -0.469155 -0.288849
lowerneck -19.5882 3.73151 -2.49421
upperneck 35.0516 5.33469 0.629046
head 15.5362 1.67022 1.61087
rclavicle 7.25564e-015 7.15625e-015
rhumerus -36.7057 -26.8688 -68.7962
rradius 14.6402
rwrist 46.0737
rhand -17.3882 -12.8123
rfingers 7.12502
rthumb 8.86076 -42.6062
lclavicle 7.25564e-015 7.15625e-015
lhumerus -22.3078 -10.2569 80.2234
lradius 58.8789
lwrist 12.6623
lhand -31.6039 0.124198
lfingers 7.12502
lthumb -4.86631 30.0483
rfemur -45.9476 1.67236 17.6448
rtibia 37.6721
rfoot -0.188364 -1.34338
rtoes -9.17701
lfemur -3.90202 2.74323 -21.4791
ltibia 38.5402
lfoot 1.50676 -2.21564
ltoes -21.3689
837
root 7.95473 16.253 -2.42516 2816.6 -87.6451 -2804.36
lowerback 2.15818 -0.586347 0.751059
upperback 3.1606 -0.820041 -0.118066
thorax 2.01854 -0.411386 -0.539427
lowerneck -19.5961 3.71705 -2.39408
upperneck 35.1788 5.21066 0.786031
head 15.5985 1.64911 1.63987
rclavicle 2.83268e-015 4.77083e-015
rhumerus -36.3305 -26.5257 -69.4298
rradius 14.7649
rwrist 45.6849
rhand -17.1823 -12.902
rfingers 7.12502
rthumb 9.05947 -42.6875
lclavicle 2.83268e-015 4.77083e-015
lhumerus -22.6162 -9.90557 80.3741
lradius 58.3602
lwrist 12.5803
lhand -31.7655 0.356615
lfingers 7.12502
lthumb -5.0223 30.2771
rfemur -45.1507 1.69778 18.24
rtibia 38.8983
rfoot -1.25143 -1.66626
rtoes -8.86789
lfemur -4.90152 3.45072 -20.695
ltibia 41.84
lfoot 4.08156 -1.99487
ltoes -21.215
838
root 7.93695 16.2552 -2.45242 2822.15 -87.9219 -2810.16
lowerback 2.22456 -0.576645 1.06994
upperback 3.28278 -0.809974 -0.0160397
thorax 2.10484 -0.401295 -0.613626
lowerneck -19.6417 3.70024 -2.39876
upperneck 35.3535 5.1051 0.986075
head 15.6874 1.62523 1.71062
rclavicle -3.62782e-015 -4.37326e-015
rhumerus -35.8461 -26.2075 -69.9192
rradius 14.8825
rwrist 45.6132
rhand -16.983 -12.6098
rfingers 7.12502
rthumb 9.25177 -42.3868
lclavicle -3.62782e-015 -4.37326e-015
lhumerus -22.8359 -9.42269 80.6859
lradius 57.6537
lwrist 12.8705
lhand -32.0122 0.4105
lfingers 7.12502
lthumb -5.26055 30.3252
rfemur -44.2542 1.53017 18.9087
rtibia 39.6283
rfoot -2.24955 -1.39639
rtoes -6.82711
lfemur -6.17105 3.81037 -19.9071
ltibia 45.169
lfoot 5.50693 -2.01976
ltoes -20.0456
839
root 7.91871 16.2755 -2.48162 2835.38 -88.1268 -2823.43
lowerback 2.01609 -0.600893 1.41292
upperback 3.34693 -0.847275 0.12981
thorax 2.28514 -0.412845 -0.659056
lowerneck -19.5987 3.64596 -2.36847
upperneck 35.5412 4.93417 1.1503
head 15.7673 1.57262 1.74599
rclavicle 7.20594e-016 1.98785e-015
rhumerus -35.2619 -25.3451 -70.7474
rradius 15.187
rwrist 44.609
rhand -16.8374 -12.5509
rfingers 7.12502
rthumb 9.39224 -42.3217
lclavicle 7.20594e-016 1.98785e-015
lhumerus -23.0505 -8.92423 81.0424
lradius 56.8458
lwrist 12.7111
lhand -32.1009 0.724365
lfingers 7.12502
lthumb -5.34619 30.6369
rfemur -43.2797 1.49988 19.5234
rtibia 39.9042
rfoot -3.27739 -1.56091
rtoes -6.50043
lfemur -7.8483 3.8739 -19.0687
ltibia 48.5217
lfoot 6.27106 -2.08155
ltoes -18.0104
840
root 7.90561 16.3078 -2.50921 2860 -88.3077 -2848
lowerback 1.77491 -0.652468 2.00049
upperback 3.37295 -0.925723 0.401057
thorax 2.44237 -0.440473 -0.713081
lowerneck -19.5907 3.59743 -2.4378
upperneck 35.7579 4.80913 1.31635
head 15.866 1.52416 1.80964
rclavicle 1.62506e-014 -1.35174e-014
rhumerus -34.5309 -24.1895 -71.6587
rradius 15.5344
rwrist 43.4654
rhand -16.7028 -12.5753
rfingers 7.12502
rthumb 9.52208 -42.3402
lclavicle 1.62506e-014 -1.35174e-014
lhumerus -23.206 -8.43393 81.4989
lradius 55.915
lwrist 12.9717
lhand -32.227 1.04517
lfingers 7.12502
lthumb -5.46792 30.9546
rfemur -42.2601 1.42187 20.4388
rtibia 39.8798
rfoot -4.17218 -1.83201
rtoes -5.97183
lfemur -9.80074 3.78416 -18.0015
ltibia 51.7605
lfoot 6.26204 -2.07808
ltoes -18.0799
841
root 7.9005 16.3347 -2.5337 2886.36 -88.2473 -2874.24
lowerback 1.55282 -0.590318 2.71111
upperback 3.32653 -0.852906 0.614256
thorax 2.51649 -0.389126 -0.894018
lowerneck -19.5248 3.50005 -2.37966
upperneck 35.9405 4.56733 1.4629
head 15.9438 1.44435 1.81945
rclavicle -7.10655e-015 -1.15295e-014
rhumerus -33.8513 -22.9488 -72.6766
rradius 15.9669
rwrist 41.7472
rhand -16.5508 -12.6129
rfingers 7.12502
rthumb 9.66872 -42.371
lclavicle -7.10655e-015 -1.15295e-014
lhumerus -23.3539 -8.08053 81.9872
lradius 54.9579
lwrist 12.8914
lhand -32.2086 1.58411
lfingers 7.12502
lthumb -5.45018 31.494
rfemur -41.3215 1.45665 21.3804
rtibia 39.6833
rfoot -4.93266 -1.92275
rtoes -5.65049
lfemur -11.9095 3.86617 -16.9084
ltibia 54.8467
lfoot 6.07023 -1.99888
ltoes -18.0121
842
root 7.89857 16.3703 -2.55723 2900.53 -87.8052 -2888.29
lowerback 1.39238 -0.574729 3.16649
upperback 3.25497 -0.840515 0.78834
thorax 2.53113 -0.374428 -0.971305
lowerneck -19.4798 3.40907 -2.35298
upperneck 36.168 4.33203 1.64243
head 16.0474 1.36575 1.85182
rclavicle -3.67752e-015 1.15295e-014
rhumerus -33.2084 -21.7494 -73.6046
rradius 16.4237
rwrist 40.3
rhand -16.5736 -12.7435
rfingers 7.12502
rthumb 9.64678 -42.5026
lclavicle -3.67752e-015 1.15295e-014
lhumerus -23.5467 -7.71663 82.4762
lradius 53.9112
lwrist 12.5003
lhand -31.8266 2.11299
lfingers 7.12502
lthumb -5.08135 32.0321
rfemur -40.3093 1.34745 22.0948
rtibia 39.3936
rfoot -5.69557 -2.16565
rtoes -5.52628
lfemur -14.0735 3.93123 -16.0411
ltibia 57.6536
lfoot 5.89184 -2.0057
ltoes -18.3496
843
root 7.90208 16.408 -2.57425 2907.86 -87.356 -2895.5
lowerback 1.35202 -0.516017 3.55606
upperback 3.13138 -0.763556 0.932256
thorax 2.4278 -0.331035 -1.04051
lowerneck -19.3869 3.29294 -2.32366
upperneck 36.3578 4.08147 1.7584
head 16.1251 1.27411 1.85164
rclavicle -4.37326e-015 2.5842e-014
rhumerus -32.6632 -20.7583 -74.2765
rradius 16.8199
rwrist 39.7095
rhand -17.7307 -12.1968
rfingers 7.12502
rthumb 8.53026 -42.0045
lclavicle -4.37326e-015 2.5842e-014
lhumerus -23.8269 -7.66079 83.084
lradius 52.9056
lwrist 12.9266
lhand -31.834 2.34749
lfingers 7.12502
lthumb -5.08846 32.2664
rfemur -39.3264 1.19307 22.7091
rtibia 39.1016
rfoot -6.34481 -2.3382
rtoes -6.92405
lfemur -16.3032 3.97165 -15.4018
ltibia 60.2116
lfoot 5.71131 -2.143
ltoes -18.7393
844
root 7.90823 16.4448 -2.59487 2911.91 -86.9851 -2899.44
lowerback 1.32326 -0.446477 3.67951
upperback 3.03015 -0.672844 1.11089
thorax 2.34466 -0.287612 -0.925293
lowerneck -19.3705 3.19362 -2.31781
upperneck 36.5911 3.89643 1.80054
head 16.2442 1.19377 1.83889
rclavicle -2.78299e-015 -7.95139e-016
rhumerus -31.9508 -19.3762 -75.1106
rradius 17.3279
rwrist 38.0104
rhand -17.7457 -12.3832
rfingers 7.12502
rthumb 8.51575 -42.1915
lclavicle -2.78299e-015 -7.95139e-016
lhumerus -24.1519 -7.39965 83.7198
lradius 51.8347
lwrist 12.515
lhand -31.5681 2.72998
lfingers 7.12502
lthumb -4.83167 32.6549
rfemur -38.3136 1.28907 23.1449
rtibia 38.7999
rfoot -7.08444 -2.68541
rtoes -5.6045
lfemur -18.5055 4.06752 -14.9221
ltibia 62.446
lfoot 5.62234 -2.28464
ltoes -18.0383
845
root 7.91953 16.479 -2.61226 2914.89 -86.8423 -2902.25
lowerback 1.22871 -0.34614 3.63527
upperback 2.95131 -0.543862 1.2627
thorax 2.32364 -0.227228 -0.744325
lowerneck -19.3948 3.10976 -2.37829
upperneck 36.7593 3.77061 1.8347
head 16.3374 1.13088 1.845
rclavicle -1.78906e-015 2.3059e-014
rhumerus -31.1738 -18.0046 -75.8657
rradius 17.8262
rwrist 36.8585
rhand -17.8488 -12.3948
rfingers 7.12502
rthumb 8.41627 -42.2071
lclavicle -1.78906e-015 2.3059e-014
lhumerus -24.4913 -7.07679 84.3221
lradius 50.8141
lwrist 12.3965
lhand -31.248 3.02732
lfingers 7.12502
lthumb -4.52263 32.959
rfemur -37.3961 1.42249 23.4695
rtibia 38.4712
rfoot -7.72604 -2.90897
rtoes -6.06376
lfemur -20.7134 4.36264 -14.6662
ltibia 64.3641
lfoot 5.24395 -2.6483
ltoes -18.5117
